# AST/ASF file generated using VICON BodyLanguage
# -----------------------------------------------
:version 1.10
:name VICON
:units
  mass 1.0
  length 0.45
  angle deg
:documentation
   .ast/.asf automatically generated from VICON data using
   VICON BodyBuilder and BodyLanguage model FoxedUp or BRILLIANT.MOD
:root
   order TX TY TZ RX RY RZ
   axis XYZ
   position 0 0 0  
   orientation 0 0 0 
:bonedata
  begin
     id 1 
     name lhipjoint
     direction 0.662698 -0.695252 0.27831 
     length 2.53073 
     axis 0 0 0  XYZ
  end
  begin
     id 2 
     name lfemur
     direction 0.34202 -0.939693 0  
     length 7.16147  
     axis 0 0 20  XYZ
    dof rx ry rz
    limits (-160.0 20.0)
           (-70.0 70.0)
           (-60.0 70.0)
  end
  begin
     id 3 
     name ltibia
     direction 0.34202 -0.939693 0   
     length 7.63967   
     axis 0 0 20   XYZ
    dof rx
    limits (-10.0 170.0)
  end
  begin
     id 4 
     name lfoot
     direction 0.0938457 -0.257721 0.961651   
     length 1.89793   
     axis -90 7.62852e-016 20   XYZ
    dof rx rz
    limits (-45.0 90.0)
           (-70.0 20.0)
  end
  begin
     id 5 
     name ltoes
     direction -0.00116841 -0.0030592 0.999995   
     length 0.955649   
     axis -90 7.62852e-016 20   XYZ
    dof rx
    limits (-90.0 20.0)
  end
  begin
     id 6 
     name rhipjoint
     direction -0.649445 -0.705948 0.282592   
     length 2.49238  
     axis 0 0 0  XYZ 
  end
  begin
     id 7 
     name rfemur
     direction -0.34202 -0.939693 0   
     length 6.90728   
     axis 0 0 -20   XYZ
    dof rx ry rz
    limits (-160.0 20.0)
           (-70.0 70.0)
           (-70.0 60.0)
  end
  begin
     id 8 
     name rtibia
     direction -0.34202 -0.939693 0   
     length 7.72868   
     axis 0 0 -20   XYZ
    dof rx
    limits (-10.0 170.0)
 end
 begin
     id 9 
     name rfoot
     direction -0.0920068 -0.252865 0.963117   
     length 1.97476  
     axis -90 -7.62852e-016 -20   XYZ
    dof rx rz
    limits (-45.0 90.0)
           (-20.0 70.0)
  end
  begin
     id 10 
     name rtoes
     direction 0.000391322 0.00230649 0.999997   
     length 0.992641   
     axis -90 -7.62852e-016 -20   XYZ
    dof rx
    limits (-90.0 20.0)
  end
  begin
     id 11 
     name lowerback
     direction -0.00875327 0.998321 -0.0572635   
     length 2.20024   
     axis 0 0 0   XYZ
    dof rx ry rz
    limits (-20.0 45.0)
           (-30.0 30.0)
           (-30.0 30.0)
  end
  begin
     id 12 
     name upperback
     direction 0.00753931 0.999972 -0.000360425   
     length 2.20538   
     axis 0 0 0   XYZ
    dof rx ry rz
    limits (-20.0 45.0)
           (-30.0 30.0)
           (-30.0 30.0)
  end
  begin
     id 13 
     name thorax
     direction 0.0117767 0.999601 0.0256663   
     length 2.21508   
     axis 0 0 0   XYZ
    dof rx ry rz
    limits (-20.0 45.0)
           (-30.0 30.0)
           (-30.0 30.0)
  end
  begin
     id 14 
     name lowerneck
     direction 0.060228 0.994909 0.0807986   
     length 1.7607   
     axis 0 0 0   XYZ
    dof rx ry rz
    limits (-20.0 45.0)
           (-30.0 30.0)
           (-30.0 30.0)
  end
  begin
     id 15 
     name upperneck
     direction -0.0563647 0.959594 -0.275685   
     length 1.75612   
     axis 0 0 0   XYZ
    dof rx ry rz
    limits (-20.0 45.0)
           (-30.0 30.0)
           (-30.0 30.0)
  end
  begin
     id 16
     name head
     direction -0.0161544 0.99458 -0.102714  
     length 1.79288  
     axis 0 0 0   XYZ
    dof rx ry rz
    limits (-20.0 45.0)
           (-30.0 30.0)
           (-30.0 30.0)
  end
  begin
     id 17 
     name lclavicle
     direction 0.93913 0.332189 -0.087669  
     length 3.52087  
     axis 0 0 0   XYZ
    dof ry rz
    limits (-20.0 10.0)
           (0.0 20.0)
  end
  begin
     id 18 
     name lhumerus
     direction 1 -4.48974e-011 -2.70836e-027   
     length 5.35289   
     axis -180 -30 -90   XYZ
    dof rx ry rz
    limits (-60.0 90.0)
           (-90.0 90.0)
           (-90.0 90.0)
  end
  begin
     id 19
     name lradius
     direction 1 -4.48961e-011 -9.76021e-027   
     length 3.27727   
     axis -180 -30 -90   XYZ
    dof rx
    limits (-10.0 170.0)
  end
  begin
     id 20
     name lwrist
     direction 1 -4.49103e-011 -2.23668e-026   
     length 1.63864   
     axis 1.44924e-014 90 90   XYZ
    dof ry
    limits (-180.0 0.0)
 end
  begin
     id 21 
     name lhand
     direction 1 3.0697e-005 0.000161777   
     length 0.54443   
     axis 2.85318e-014 90 90   XYZ
    dof rx rz
    limits (-90.0 90.0)
           (-45.0 45.0)
  end
  begin
     id 22 
     name lfingers
     direction 1 -4.49027e-011 -8.9447e-026   
     length 0.438912   
     axis 5.70628e-014 90 90   XYZ
    dof rx
    limits (0.0 90.0)
  end
  begin
     id 23
     name lthumb
     direction 0.707058 2.6516e-005 0.707156   
     length 0.630274   
     axis -90 45 -3.53137e-014   XYZ
    dof rx rz
    limits (-45.0 45.0)
           (-45.0 45.0)
  end
  begin
     id 24 
     name rclavicle
     direction -0.95274 0.284984 -0.105215   
     length 3.43401  
     axis 0 0 0   XYZ 
    dof ry rz
    limits (-10.0 20.0)
           (-20.0 0.0)
  end
  begin
     id 25 
     name rhumerus
     direction -0.999999 -0.000575019 -0.00106829  
     length 5.52077   
     axis -180 30 90   XYZ
    dof rx ry rz
    limits (-90.0 60.0)
           (-90.0 90.0)
           (-90.0 90.0)
  end
  begin
     id 26 
     name rradius
     direction -1 -4.4879e-011 -6.35415e-027   
     length 3.32364   
     axis -180 30 90   XYZ
    dof rx
    limits (-10.0 170.0)
  end
  begin
     id 27 
     name rwrist
     direction -1 -4.49048e-011 -9.98542e-027   
     length 1.66182   
     axis 6.32482e-015 -90 -90   XYZ
    dof ry
    limits (-180.0 0.0)
  end
  begin
     id 28
     name rhand
     direction -1 -4.48978e-011 -1.99771e-026   
     length 0.732235   
     axis 1.27479e-014 -90 -90   XYZ
    dof rx rz
    limits (-90.0 90.0)
           (-45.0 45.0)
  end
  begin
     id 29
     name rfingers
     direction -1 -4.49144e-011 -3.99245e-026   
     length 0.590347   
     axis 2.5496e-014 -90 -90   XYZ
    dof rx
    limits (0.0 90.0)
  end
  begin
     id 30
     name rthumb
     direction -0.707107 -6.35121e-011 0.707107   
     length 0.847624   
     axis -90 -45 -2.82974e-014   XYZ
    dof rx rz
    limits (-45.0 45.0)
           (-45.0 45.0)
  end
:hierarchy
  begin
    root lhipjoint rhipjoint lowerback
    lhipjoint lfemur
    lfemur ltibia
    ltibia lfoot
    lfoot ltoes
    rhipjoint rfemur
    rfemur rtibia
    rtibia rfoot
    rfoot rtoes
    lowerback upperback
    upperback thorax
    thorax lowerneck lclavicle rclavicle
    lowerneck upperneck
    upperneck head
    lclavicle lhumerus
    lhumerus lradius
    lradius lwrist
    lwrist lhand lthumb
    lhand lfingers
    rclavicle rhumerus
    rhumerus rradius
    rradius rwrist
    rwrist rhand rthumb
    rhand rfingers
  end

#!OML:ASF G:\Work\Work\Patient Classification 1\Elijah\terrain1\Elijah.ASF
:FULLY-SPECIFIED
:DEGREES
124
root 15.5895 23.5323 2.95944 4.52395 2.41147 -2.89384
lowerback 4.08793 1.29558 4.56152
upperback 0.890065 1.94163 1.49526
thorax -1.2763 0.9564 -1.11639
lowerneck -12.5581 12.4966 10.3049
upperneck 36.0501 21.2242 -12.0081
head 18.2389 8.78617 -2.82752
rclavicle -1.64991e-014 -3.97569e-015
rhumerus -36.8565 -5.47885 -80.8659
rradius 38.8191
rwrist -3.14468
rhand -12.1593 20.5375
rfingers 7.12502
rthumb 13.9035 -8.97771
lclavicle -1.64991e-014 -3.97569e-015
lhumerus -42.5218 34.3201 61.5912
lradius 27.1149
lwrist 3.83721
lhand -13.7093 24.6492
lfingers 7.12502
lthumb 12.4094 54.2609
rfemur -6.52203 -4.20126 29.3426
rtibia 19.5178
rfoot -11.0309 -5.25673
rtoes -0.790866
lfemur -32.4026 7.3099 -18.8818
ltibia 74.6856
lfoot -2.8709 -10.197
ltoes -12.8026
125
root 15.5903 23.5191 3.03898 4.50834 2.31412 -3.16757
lowerback 4.31888 1.27313 4.86136
upperback 0.732919 1.94543 1.47609
thorax -1.5565 0.948935 -1.3122
lowerneck -12.2082 12.5774 10.4495
upperneck 36.0708 21.2754 -11.8654
head 18.1628 8.86248 -2.79635
rclavicle -1.62506e-014 -1.94809e-014
rhumerus -37.1883 -5.3143 -81.0578
rradius 38.935
rwrist -3.33606
rhand -12.3941 21.1779
rfingers 7.12502
rthumb 13.6772 -8.35268
lclavicle -1.62506e-014 -1.94809e-014
lhumerus -43.0989 34.5233 60.8729
lradius 27.0214
lwrist 3.59634
lhand -13.6797 25.0291
lfingers 7.12502
lthumb 12.4379 54.639
rfemur -6.68095 -4.26198 29.639
rtibia 20.4302
rfoot -11.4015 -5.22082
rtoes -0.971052
lfemur -33.0749 7.44701 -18.8522
ltibia 74.0803
lfoot -3.47808 -10.2133
ltoes -13.9001
126
root 15.5919 23.502 3.13078 4.46105 2.2487 -3.22019
lowerback 4.47031 1.1473 4.7231
upperback 0.553175 1.79035 1.55848
thorax -1.84253 0.864063 -1.14893
lowerneck -12.0687 12.7417 10.3658
upperneck 36.3208 21.4869 -11.5466
head 18.2302 8.97152 -2.6033
rclavicle 4.32357e-015 7.15625e-015
rhumerus -37.6841 -4.77839 -81.1072
rradius 39.4623
rwrist -3.23976
rhand -12.0338 20.6715
rfingers 7.12502
rthumb 14.0244 -8.83542
lclavicle 4.32357e-015 7.15625e-015
lhumerus -44.0924 34.6629 60.1146
lradius 26.9857
lwrist 3.67745
lhand -13.4932 25.3073
lfingers 7.12502
lthumb 12.6177 54.9063
rfemur -6.78806 -4.5351 29.6754
rtibia 21.3857
rfoot -11.905 -5.09572
rtoes -1.79208
lfemur -33.5973 7.52117 -19.0656
ltibia 73.3271
lfoot -3.86031 -10.249
ltoes -13.2841
127
root 15.593 23.4819 3.21211 4.46714 2.11987 -3.05849
lowerback 4.24548 1.28195 4.76691
upperback 0.89936 1.93876 1.32315
thorax -1.34206 0.952852 -1.41161
lowerneck -12.2785 12.5808 10.6741
upperneck 35.949 21.1319 -11.7796
head 18.1006 8.84049 -2.81885
rclavicle -1.58034e-014 7.95139e-016
rhumerus -37.1583 -5.42628 -81.104
rradius 39.6867
rwrist -2.80811
rhand -11.5321 20.1574
rfingers 7.12502
rthumb 14.5078 -9.31539
lclavicle -1.58034e-014 7.95139e-016
lhumerus -43.5474 34.6713 60.1021
lradius 26.6683
lwrist 3.50019
lhand -12.9736 24.417
lfingers 7.12502
lthumb 13.1186 53.9843
rfemur -6.96037 -4.80781 29.4949
rtibia 22.2756
rfoot -12.3386 -4.97916
rtoes -2.92126
lfemur -34.1641 7.57437 -19.4923
ltibia 72.4763
lfoot -3.97866 -10.2625
ltoes -11.5663
128
root 15.5902 23.4585 3.28113 4.45418 1.88527 -3.14576
lowerback 4.56475 1.32665 4.81941
upperback 0.783317 2.02392 1.25498
thorax -1.63098 0.986909 -1.52626
lowerneck -12.5427 12.7761 10.542
upperneck 35.9425 21.4208 -11.6702
head 18.1727 8.93327 -2.65868
rclavicle -1.59028e-015 3.57812e-015
rhumerus -37.2836 -5.5176 -81.131
rradius 39.8001
rwrist -2.54873
rhand -11.2065 19.9026
rfingers 7.12502
rthumb 14.8216 -9.54734
lclavicle -1.59028e-015 3.57812e-015
lhumerus -44.2198 34.5093 59.3941
lradius 26.5957
lwrist 3.1774
lhand -12.674 24.0129
lfingers 7.12502
lthumb 13.4074 53.5615
rfemur -7.16631 -4.61719 29.6309
rtibia 23.2042
rfoot -12.6772 -5.12217
rtoes -3.51093
lfemur -34.7452 7.73429 -19.5866
ltibia 71.5584
lfoot -4.063 -10.4792
ltoes -10.5489
129
root 15.5927 23.4358 3.36317 4.42632 1.66517 -3.50601
lowerback 4.6728 1.30517 5.10898
upperback 0.665125 2.02294 1.33565
thorax -1.80637 0.978998 -1.60975
lowerneck -13.9005 13.2648 9.45695
upperneck 36.7956 22.1588 -10.5563
head 18.7318 9.09392 -1.72815
rclavicle -3.23522e-014 -1.78906e-014
rhumerus -37.6306 -5.24177 -81.1427
rradius 40.3825
rwrist -2.7829
rhand -10.4997 19.1397
rfingers 7.12502
rthumb 15.5024 -10.2588
lclavicle -3.23522e-014 -1.78906e-014
lhumerus -45.2002 34.8631 58.3313
lradius 26.3929
lwrist 2.43798
lhand -12.6191 24.2448
lfingers 7.12502
lthumb 13.4603 53.7899
rfemur -7.2973 -4.5251 30.0043
rtibia 24.188
rfoot -13.2284 -5.04841
rtoes -3.16492
lfemur -35.229 7.86581 -19.3913
ltibia 70.5525
lfoot -4.29105 -10.6845
ltoes -10.2107
130
root 15.6005 23.4196 3.45199 4.52864 1.49768 -3.62218
lowerback 4.42001 1.25378 5.18313
upperback 0.798409 1.93675 1.40309
thorax -1.53276 0.944271 -1.56773
lowerneck -14.0433 13.1495 9.59698
upperneck 36.6208 22.0111 -10.8707
head 18.7345 9.01095 -1.91529
rclavicle -1.69464e-014 -5.96354e-015
rhumerus -37.466 -5.03026 -81.0858
rradius 40.5474
rwrist -2.28923
rhand -10.8108 20.0067
rfingers 7.12502
rthumb 15.2027 -9.41481
lclavicle -1.69464e-014 -5.96354e-015
lhumerus -45.6265 35.5249 57.7061
lradius 26.0524
lwrist 1.68144
lhand -12.5847 24.1646
lfingers 7.12502
lthumb 13.4935 53.7075
rfemur -7.51413 -4.76792 30.0545
rtibia 25.0658
rfoot -13.746 -4.65951
rtoes -3.0291
lfemur -35.7224 7.86747 -19.5377
ltibia 69.4043
lfoot -4.37353 -10.5263
ltoes -10.4734
131
root 15.601 23.393 3.53538 4.55011 1.1954 -3.60239
lowerback 4.39621 1.24449 4.96623
upperback 0.935567 1.90843 1.48868
thorax -1.38998 0.936456 -1.35465
lowerneck -13.4536 13.2292 9.90814
upperneck 35.902 22.3019 -11.7577
head 18.4572 9.12654 -2.31575
rclavicle 5.26779e-015 1.98785e-015
rhumerus -37.0922 -4.96563 -80.9169
rradius 40.6056
rwrist -1.65286
rhand -10.8539 20.3495
rfingers 7.12502
rthumb 15.1613 -9.07505
lclavicle 5.26779e-015 1.98785e-015
lhumerus -45.9462 35.9776 57.3853
lradius 25.8685
lwrist 1.01746
lhand -12.5007 24.266
lfingers 7.12502
lthumb 13.5745 53.8034
rfemur -7.64984 -4.6751 30.0064
rtibia 25.8377
rfoot -13.994 -4.51531
rtoes -3.30958
lfemur -36.0358 8.00464 -19.7923
ltibia 68.0833
lfoot -4.2926 -10.1748
ltoes -10.9541
132
root 15.5899 23.3614 3.62437 4.37514 0.694823 -3.87697
lowerback 4.60277 1.37499 5.03055
upperback 0.970567 2.09813 1.55073
thorax -1.45819 1.02971 -1.34171
lowerneck -12.6894 12.9039 10.3609
upperneck 35.7797 21.7468 -11.9752
head 18.2121 8.99372 -2.6749
rclavicle 1.31695e-014 1.23246e-014
rhumerus -37.1863 -5.14157 -80.7551
rradius 40.8036
rwrist -1.38431
rhand -10.1185 20.1771
rfingers 7.12502
rthumb 15.8695 -9.19258
lclavicle 1.31695e-014 1.23246e-014
lhumerus -46.425 35.7171 57.0461
lradius 25.9472
lwrist 0.662669
lhand -12.234 24.9833
lfingers 7.12502
lthumb 13.8315 54.5035
rfemur -7.6099 -4.10188 30.3364
rtibia 26.7747
rfoot -14.3028 -4.69246
rtoes -3.52169
lfemur -36.0816 8.43599 -19.5956
ltibia 66.6382
lfoot -4.15203 -9.89604
ltoes -10.362
133
root 15.6037 23.3578 3.71299 4.47519 0.659554 -3.6897
lowerback 4.55436 1.39883 5.18087
upperback 0.935511 2.13049 1.29004
thorax -1.44968 1.04473 -1.69419
lowerneck -13.0167 13.0522 10.2576
upperneck 35.6168 21.9662 -11.9856
head 18.2257 9.0499 -2.58105
rclavicle -7.10655e-015 8.34896e-015
rhumerus -37.4926 -5.38708 -80.7263
rradius 41.2429
rwrist -1.71362
rhand -9.22425 20.222
rfingers 7.12502
rthumb 16.7306 -9.07706
lclavicle -7.10655e-015 8.34896e-015
lhumerus -46.7158 34.9631 56.8228
lradius 26.0405
lwrist 0.589994
lhand -11.7888 25.9233
lfingers 7.12502
lthumb 14.2605 55.4137
rfemur -7.80735 -4.53909 29.9875
rtibia 27.7429
rfoot -14.713 -4.28395
rtoes -3.40233
lfemur -36.2295 8.31379 -20.0652
ltibia 64.8935
lfoot -3.95219 -9.48868
ltoes -9.7179
